<svg width="40" height="40" viewBox="0 0 200 200" fill="none" xmlns="http://www.w3.org/2000/svg">
<path fill-rule="evenodd" clip-rule="evenodd" d="M0 96.8005C0.000690064 94.8413 0.404338 92.9033 1.18585 91.1068C1.96737 89.3103 3.11004 87.6937 4.54286 86.3576L95.3571 1.71476C96.6509 0.608117 98.2975 0 100 0C101.703 0 103.349 0.608117 104.643 1.71476L195.457 86.3576C196.89 87.6937 198.033 89.3103 198.814 91.1068C199.596 92.9033 199.999 94.8413 200 96.8005V178.572C200 181.386 199.446 184.172 198.369 186.772C197.292 189.372 195.714 191.734 193.724 193.724C191.734 195.714 189.372 197.292 186.772 198.369C184.172 199.446 181.385 200 178.571 200H21.4286C15.7454 200 10.2949 197.743 6.27628 193.724C2.25765 189.706 0 184.255 0 178.572V96.8005ZM96.7143 125H96.4286H78.6143V82.1433H121.471V125H103.571H103.271H96.7286H96.7143ZM67.8 182.143H68.1H74.6571H74.9429H92.8571V139.286H50V182.143H67.8ZM125.257 182.143H124.957H107.143V139.286H150V182.143H132.1H131.814H125.257Z" fill="#666CFF"/>
</svg>
